<?xml version="1.0" standalone="no"?>
<!DOCTYPE svg PUBLIC "-//W3C//DTD SVG 20010904//EN"
 "http://www.w3.org/TR/2001/REC-SVG-20010904/DTD/svg10.dtd">
<svg version="1.0" xmlns="http://www.w3.org/2000/svg"
 width="500.000000pt" height="500.000000pt" viewBox="0 0 500.000000 500.000000"
 preserveAspectRatio="xMidYMid meet">

<g transform="translate(0.000000,500.000000) scale(0.100000,-0.100000)"
fill="#000000" stroke="none">
<path d="M2211 4539 c-673 -76 -1258 -483 -1561 -1087 -293 -582 -275 -1281
46 -1854 160 -285 444 -573 732 -742 346 -203 791 -298 1190 -256 461 50 866
241 1196 568 169 167 302 366 321 479 l6 38 -19 -30 c-10 -16 -40 -65 -67
-109 -59 -97 -90 -128 -199 -201 -679 -452 -1580 -357 -2153 226 -458 466
-611 1139 -398 1748 129 369 387 693 708 890 269 165 513 239 852 260 l120 7
-55 18 c-30 9 -82 19 -115 22 -33 2 -87 9 -120 15 -86 14 -385 19 -484 8z"/>
</g>
</svg>
